<svg width="512" height="512" viewBox="0 0 512 512" xmlns="http://www.w3.org/2000/svg">
  <!-- Background -->
  <rect width="512" height="512" fill="#D4A59A" rx="100"/>
  
  <!-- Letter G -->
  <path d="M 256 120 C 180 120 120 180 120 256 C 120 332 180 392 256 392 C 300 392 340 372 364 340 L 364 280 L 256 280 L 256 232 L 412 232 L 412 356 C 376 404 320 420 256 420 C 164 420 92 348 92 256 C 92 164 164 92 256 92 C 308 92 356 116 388 152 L 356 184 C 332 156 296 140 256 140 C 196 140 148 188 148 248 C 148 308 196 356 256 356 C 288 356 316 344 336 324 L 336 308 L 284 308 L 284 280 L 364 280 L 364 320 C 344 356 304 372 256 372 C 184 372 128 316 128 244 C 128 172 184 116 256 116 C 292 116 324 128 348 148 Z" fill="#F7F5F2"/>
  
  <!-- Leaf accent -->
  <circle cx="380" cy="132" r="24" fill="#A8B5A0"/>
</svg>
